<svg width="100" height="100" viewBox="0 0 100 100" fill="none" xmlns="http://www.w3.org/2000/svg">
<rect width="100" height="100" rx="4" fill="white"/>
<g clip-path="url(#clip0_204_2232)">
<path d="M15.5578 67.2538C15.4535 66.4114 14.6455 65.8774 13.955 65.735C12.8745 65.512 11.807 66.1047 11.807 66.1047C11.807 66.1047 11.5761 65.5051 11.0602 64.8054C10.544 64.1061 10.3391 64 10.3391 64L10.206 64.1122C10.206 64.1122 10.5317 64.3593 10.9537 64.9478C11.2795 65.4021 11.6418 66.1785 11.6418 66.1785C11.6418 66.1785 9.1548 66.2693 8.83748 67.979C8.51992 69.6891 12.4753 71.3602 12.4753 71.3602C12.4753 71.3602 15.8221 69.391 15.5575 67.2536L15.5578 67.2538ZM12.5086 71.2074L12.49 71.2048C12.49 71.2048 12.6102 69.5445 12.4992 68.4286C12.3783 67.2133 11.7023 66.2667 11.7023 66.2667L11.852 66.2098C11.852 66.2098 12.6427 67.0907 12.7 68.5314C12.7573 69.9722 12.5088 71.2072 12.5088 71.2072L12.5086 71.2074Z" fill="#8AC74F"/>
<path d="M11.096 65.6146L11.102 65.4953C11.102 65.4953 8.43994 64.9108 6.82493 66.9552C5.08136 69.162 6.28347 71.75 8.73173 73.3638C11.18 74.9774 13.2043 76.1532 12.8277 77.9283C12.4512 79.7033 10.0056 80.5493 9.27585 80.6417C8.54611 80.7341 7.98105 80.7108 7.98105 80.7108L7.98322 80.836C7.98322 80.836 10.366 81.0317 11.8476 80.3423C13.329 79.6529 15.4462 77.6378 14.5992 74.9967C13.7523 72.3557 9.51661 71.8308 8.18545 69.596C7.60764 68.6261 7.67625 67.5121 8.49194 66.6576C9.60352 65.4932 11.0962 65.6146 11.0962 65.6146H11.096Z" fill="black"/>
<path d="M8.94245 74.1819C8.94245 74.1819 6.14869 76.3722 6.40365 78.0713C6.61552 79.4831 8.04201 79.9869 9.70757 79.9014C10.8976 79.8403 12.2278 78.7961 12.0523 77.4107C11.9047 76.2453 8.9422 74.1819 8.9422 74.1819H8.94245Z" fill="#42B2E7"/>
<path d="M19.4516 77.8715V71.7715H18.9552C18.4587 71.7715 17.5511 71.9327 16.8849 72.9072C16.2772 73.7963 16.25 75.1373 16.25 76.6563C16.25 78.1754 16.798 79.2203 17.4413 79.2203C17.9873 79.2203 18.4091 78.6127 18.4091 78.6127C18.4091 78.6127 18.4712 78.7846 18.6077 78.9164C18.7743 79.0774 19.0295 79.1838 19.0295 79.1838L19.8361 78.2968C19.8361 78.2968 19.4514 78.1023 19.4514 77.8715H19.4516ZM18.3097 78.1539C18.3097 78.1539 17.7798 78.2471 17.6459 77.854C17.5645 77.6154 17.4704 77.2682 17.4704 75.1628C17.4704 73.0574 18.3099 73.1142 18.3099 73.1142V78.1537L18.3097 78.1539Z" fill="black"/>
<path d="M29.6845 77.8715V71.7715H29.1881C28.6916 71.7715 27.784 71.9327 27.1178 72.9072C26.5101 73.7963 26.4829 75.1373 26.4829 76.6563C26.4829 78.1754 27.0309 79.2203 27.6742 79.2203C28.2202 79.2203 28.642 78.6127 28.642 78.6127C28.642 78.6127 28.7041 78.7846 28.8407 78.9164C29.0073 79.0774 29.2625 79.1838 29.2625 79.1838L30.069 78.2968C30.069 78.2968 29.6843 78.1023 29.6843 77.8715H29.6845ZM28.5426 78.1539C28.5426 78.1539 28.0127 78.2471 27.8788 77.854C27.7974 77.6154 27.7033 77.2682 27.7033 75.1628C27.7033 73.0574 28.5428 73.1142 28.5428 73.1142V78.1537L28.5426 78.1539Z" fill="black"/>
<path d="M20.1965 80.7701L20.2074 80.631C20.2074 80.631 22.3489 80.2457 22.491 79.272C22.633 78.2983 21.5185 71.8463 21.5185 71.8463H22.7859L23.0921 76.5211H23.2127L23.5077 71.8359H24.8477C24.8477 71.8359 23.9902 78.0828 23.8024 79.0146C23.6146 79.9463 22.1539 80.4975 21.1088 80.6682C20.5435 80.7604 20.1963 80.7699 20.1963 80.7699L20.1965 80.7701Z" fill="black"/>
<path d="M33.6468 72.8244C33.6468 72.8244 34.3917 72.4753 34.3917 73.1611C34.3917 73.847 34.3854 79.126 34.3854 79.126H35.6337C35.6337 79.0558 35.634 73.813 35.634 73.742C35.634 72.2232 35.1582 71.7581 34.5149 71.7581C33.9689 71.7581 33.5471 72.3656 33.5471 72.3656C33.5471 72.3656 33.485 72.1938 33.3485 72.062C33.1819 71.9009 32.9267 71.7946 32.9267 71.7946L32.1201 72.6816C32.1201 72.6816 32.5048 72.8761 32.5048 73.1069V79.1208L33.6557 79.1163L33.6468 72.8242V72.8244Z" fill="black"/>
<path d="M37.8717 71.4526C37.1949 71.4526 36.6445 71.9918 36.6445 72.6543C36.6445 73.3168 37.1951 73.856 37.8717 73.856C38.5482 73.856 39.0988 73.3168 39.0988 72.6543C39.0988 71.9918 38.5482 71.4526 37.8717 71.4526ZM37.8717 73.7617C37.2481 73.7617 36.7408 73.265 36.7408 72.6543C36.7408 72.0437 37.2481 71.5469 37.8717 71.5469C38.4952 71.5469 39.0025 72.0437 39.0025 72.6543C39.0025 73.265 38.4952 73.7617 37.8717 73.7617Z" fill="black"/>
<path d="M38.4582 72.3483C38.4582 72.1543 38.2972 71.9966 38.099 71.9966H37.3804V73.3093H37.4767V72.6999H37.8951L38.2989 73.3115L38.4156 73.3122L38.01 72.6999H38.099C38.2969 72.6999 38.4582 72.5421 38.4582 72.3481V72.3483ZM37.4767 72.6058V72.0911H38.099C38.244 72.0911 38.3619 72.2067 38.3619 72.3486C38.3619 72.4905 38.244 72.606 38.099 72.606H37.4767V72.6058Z" fill="black"/>
</g>
<g clip-path="url(#clip1_204_2232)">
<path d="M51.5864 23.8146C51.8149 24.8083 52.2608 31.2958 51.0933 37.1929C50.3464 40.9695 48.4066 45.2357 48.4066 45.2357C48.4066 45.2357 39.7519 41.2215 39.2697 32.0194C38.8165 23.379 42.2138 16.9635 45.0782 13.1509C36.7171 14.5513 32 18.0039 32 18.0039L32.1269 31.9078C32.2067 40.4511 36.5503 48.4003 43.7258 53.1201L48.8236 56.4719C48.9106 59.1972 48.4393 62.333 48.4393 62.333C48.4393 62.333 49.6829 60.2737 50.1579 58.9956C50.6329 57.7175 51.7822 54.8842 51.7822 54.8842L51.717 54.8338C53.0077 51.1904 54.3457 46.6182 54.8206 42.2655C55.9918 31.537 52.1484 24.7435 51.5864 23.8146Z" fill="#5D9C57"/>
<path d="M61.3507 13.6154C60.2376 12.8882 58.9541 12.1502 57.5074 11.4877C52.0615 9 48.9614 9 48.9614 9C48.9614 9 52.6887 10.7029 55.3936 12.7334C55.5241 12.8306 55.651 12.9314 55.7743 13.0286C59.0918 15.7251 62.6487 20.0634 64.0882 26.8209C66.938 40.1956 59.1897 51.3561 53.7184 57.3072L60.2992 52.8214C67.3369 48.0224 71.5391 40.0912 71.5391 31.6163V18.0041C71.5391 18.0041 68.0439 15.1887 61.3471 13.6154H61.3507Z" fill="#9AC057"/>
</g>
<path d="M40.4563 71.5809C40.4563 71.1138 40.3922 70.7703 40.264 70.5505C40.1358 70.3215 39.8793 70.207 39.4946 70.207H39.2198V69.9322H42.792C43.6713 69.9322 44.4636 70.12 45.1688 70.4955C45.8741 70.8711 46.2268 71.5992 46.2268 72.68C46.2268 73.3945 46.0436 73.944 45.6772 74.3287C45.3108 74.7134 44.8986 74.9699 44.4407 75.0981C43.9919 75.2263 43.5797 75.2905 43.2042 75.2905H41.6929V79H40.4563V71.5809ZM42.7233 74.8096C43.0164 74.8096 43.3278 74.7363 43.6575 74.5898C43.9873 74.434 44.2666 74.1913 44.4956 73.8616C44.7338 73.5319 44.8528 73.1151 44.8528 72.6113C44.8528 72.1076 44.7338 71.6908 44.4956 71.3611C44.2666 71.0313 43.9873 70.7932 43.6575 70.6466C43.3278 70.4909 43.0164 70.4131 42.7233 70.4131C42.4027 70.4131 42.0592 70.4589 41.6929 70.5505V74.6722C42.0592 74.7638 42.4027 74.8096 42.7233 74.8096ZM47.6798 74.1913C47.6798 73.7242 47.6156 73.3807 47.4874 73.1609C47.3592 72.9319 47.1027 72.8174 46.718 72.8174H46.5806V72.5426H47.6798C48.0278 72.5426 48.2889 72.593 48.4629 72.6938C48.6461 72.7854 48.7743 72.9411 48.8476 73.1609H48.9163C49.0811 72.9502 49.301 72.7716 49.5758 72.6251C49.8597 72.4785 50.1894 72.4052 50.565 72.4052C50.9313 72.4052 51.2061 72.4739 51.3893 72.6113C51.545 72.7304 51.7053 72.9365 51.8702 73.2296L51.3206 73.6418C51.2199 73.5044 51.0733 73.4036 50.881 73.3395C50.6886 73.2662 50.4688 73.2296 50.2215 73.2296C49.9467 73.2296 49.6948 73.2937 49.4658 73.4219C49.2369 73.541 49.0537 73.7059 48.9163 73.9165V79H47.6798V74.1913ZM55.5615 79.1374C54.9386 79.1374 54.3982 78.9908 53.9403 78.6977C53.4823 78.3955 53.1342 77.9879 52.8961 77.475C52.658 76.962 52.5389 76.3942 52.5389 75.7713C52.5389 75.1485 52.658 74.5806 52.8961 74.0677C53.1342 73.5547 53.4823 73.1517 53.9403 72.8586C54.3982 72.5564 54.9386 72.4052 55.5615 72.4052C56.1843 72.4052 56.7247 72.5564 57.1827 72.8586C57.6407 73.1517 57.9887 73.5547 58.2269 74.0677C58.465 74.5806 58.5841 75.1485 58.5841 75.7713C58.5841 76.3942 58.465 76.962 58.2269 77.475C57.9887 77.9879 57.6407 78.3955 57.1827 78.6977C56.7247 78.9908 56.1843 79.1374 55.5615 79.1374ZM55.5615 78.5878C55.9004 78.5878 56.1981 78.4642 56.4545 78.2169C56.7201 77.9696 56.9216 77.6307 57.059 77.2002C57.2056 76.7697 57.2789 76.2934 57.2789 75.7713C57.2789 75.2492 57.2056 74.7729 57.059 74.3425C56.9216 73.912 56.7201 73.5731 56.4545 73.3258C56.1981 73.0785 55.9004 72.9548 55.5615 72.9548C55.2226 72.9548 54.9203 73.0785 54.6547 73.3258C54.3982 73.5731 54.1967 73.912 54.0502 74.3425C53.9128 74.7729 53.8441 75.2492 53.8441 75.7713C53.8441 76.2934 53.9128 76.7697 54.0502 77.2002C54.1967 77.6307 54.3982 77.9696 54.6547 78.2169C54.9203 78.4642 55.2226 78.5878 55.5615 78.5878ZM62.105 79.1374C61.5921 79.1374 61.1891 78.9908 60.896 78.6977C60.6029 78.4046 60.4563 77.9558 60.4563 77.3513V73.0922H59.4946V72.5426H60.4563V71.3061L61.1433 70.4818H61.6929V72.5426H63.3416V73.0922H61.6929V77.3513C61.6929 78.1757 62.0134 78.5878 62.6546 78.5878C62.8744 78.5878 63.0576 78.5649 63.2042 78.5191C63.3599 78.4733 63.5202 78.4046 63.685 78.313L63.8224 78.5878C63.6118 78.7435 63.3782 78.8763 63.1217 78.9863C62.8653 79.087 62.5264 79.1374 62.105 79.1374ZM67.3519 79.1374C66.729 79.1374 66.2024 78.9908 65.7719 78.6977C65.3414 78.3955 65.0162 77.9925 64.7964 77.4887C64.5766 76.9758 64.4667 76.4033 64.4667 75.7713C64.4667 75.1485 64.5766 74.5806 64.7964 74.0677C65.0162 73.5547 65.3322 73.1517 65.7444 72.8586C66.1657 72.5564 66.6557 72.4052 67.2145 72.4052C68.1396 72.4052 68.8265 72.6663 69.2753 73.1884C69.7333 73.7013 69.9623 74.4478 69.9623 75.4278L69.9348 75.9774H65.7719C65.7719 76.7468 65.9367 77.3742 66.2665 77.8597C66.5962 78.3451 67.0496 78.5878 67.6266 78.5878C68.0571 78.5878 68.4189 78.4962 68.712 78.313C69.0143 78.1299 69.2936 77.8551 69.5501 77.4887L69.8249 77.6948C69.5226 78.1986 69.17 78.5649 68.767 78.7939C68.364 79.0229 67.8923 79.1374 67.3519 79.1374ZM68.6571 75.4278C68.6571 74.6218 68.538 74.0081 68.2999 73.5868C68.0617 73.1655 67.6999 72.9548 67.2145 72.9548C66.9397 72.9548 66.6924 73.0647 66.4726 73.2845C66.2527 73.4952 66.0787 73.7883 65.9505 74.1638C65.8314 74.5394 65.7719 74.9607 65.7719 75.4278H68.6571ZM74.1978 79.1374C73.5383 79.1374 72.9796 78.9908 72.5216 78.6977C72.0728 78.3955 71.7339 77.9925 71.5049 77.4887C71.2851 76.9758 71.1752 76.4033 71.1752 75.7713C71.1752 75.1393 71.2851 74.5714 71.5049 74.0677C71.7339 73.5547 72.0728 73.1517 72.5216 72.8586C72.9796 72.5564 73.5383 72.4052 74.1978 72.4052C75.2053 72.4052 75.8694 72.5655 76.1899 72.8861C76.3457 73.0418 76.4418 73.2342 76.4785 73.4632C76.5151 73.683 76.5334 74.086 76.5334 74.6722H76.2586C76.222 74.1043 76.0434 73.6784 75.7228 73.3945C75.4022 73.1014 74.9855 72.9548 74.4726 72.9548C73.8131 72.9548 73.3139 73.2159 72.975 73.7379C72.6453 74.26 72.4804 74.9378 72.4804 75.7713C72.4804 76.6048 72.6453 77.2826 72.975 77.8047C73.3139 78.3268 73.8131 78.5878 74.4726 78.5878C74.9397 78.5878 75.3244 78.5008 75.6266 78.3268C75.9289 78.1436 76.2083 77.8642 76.4647 77.4887L76.7395 77.6948C76.4372 78.2077 76.08 78.5787 75.6679 78.8077C75.2557 79.0275 74.7657 79.1374 74.1978 79.1374ZM80.0973 79.1374C79.5844 79.1374 79.1814 78.9908 78.8883 78.6977C78.5952 78.4046 78.4486 77.9558 78.4486 77.3513V73.0922H77.4869V72.5426H78.4486V71.3061L79.1356 70.4818H79.6851V72.5426H81.3338V73.0922H79.6851V77.3513C79.6851 78.1757 80.0057 78.5878 80.6469 78.5878C80.8667 78.5878 81.0499 78.5649 81.1964 78.5191C81.3521 78.4733 81.5124 78.4046 81.6773 78.313L81.8147 78.5878C81.604 78.7435 81.3705 78.8763 81.114 78.9863C80.8575 79.087 80.5186 79.1374 80.0973 79.1374ZM85.4815 79.1374C84.8587 79.1374 84.3183 78.9908 83.8603 78.6977C83.4023 78.3955 83.0543 77.9879 82.8161 77.475C82.578 76.962 82.4589 76.3942 82.4589 75.7713C82.4589 75.1485 82.578 74.5806 82.8161 74.0677C83.0543 73.5547 83.4023 73.1517 83.8603 72.8586C84.3183 72.5564 84.8587 72.4052 85.4815 72.4052C86.1044 72.4052 86.6448 72.5564 87.1027 72.8586C87.5607 73.1517 87.9088 73.5547 88.1469 74.0677C88.385 74.5806 88.5041 75.1485 88.5041 75.7713C88.5041 76.3942 88.385 76.962 88.1469 77.475C87.9088 77.9879 87.5607 78.3955 87.1027 78.6977C86.6448 78.9908 86.1044 79.1374 85.4815 79.1374ZM85.4815 78.5878C85.8204 78.5878 86.1181 78.4642 86.3746 78.2169C86.6402 77.9696 86.8417 77.6307 86.9791 77.2002C87.1256 76.7697 87.1989 76.2934 87.1989 75.7713C87.1989 75.2492 87.1256 74.7729 86.9791 74.3425C86.8417 73.912 86.6402 73.5731 86.3746 73.3258C86.1181 73.0785 85.8204 72.9548 85.4815 72.9548C85.1426 72.9548 84.8404 73.0785 84.5747 73.3258C84.3183 73.5731 84.1168 73.912 83.9702 74.3425C83.8328 74.7729 83.7641 75.2492 83.7641 75.7713C83.7641 76.2934 83.8328 76.7697 83.9702 77.2002C84.1168 77.6307 84.3183 77.9696 84.5747 78.2169C84.8404 78.4642 85.1426 78.5878 85.4815 78.5878ZM90.2253 74.1913C90.2253 73.7242 90.1611 73.3807 90.0329 73.1609C89.9047 72.9319 89.6482 72.8174 89.2635 72.8174H89.1261V72.5426H90.2253C90.5733 72.5426 90.8344 72.593 91.0084 72.6938C91.1916 72.7854 91.3198 72.9411 91.3931 73.1609H91.4618C91.6266 72.9502 91.8465 72.7716 92.1213 72.6251C92.4052 72.4785 92.7349 72.4052 93.1105 72.4052C93.4768 72.4052 93.7516 72.4739 93.9348 72.6113C94.0905 72.7304 94.2508 72.9365 94.4157 73.2296L93.8661 73.6418C93.7654 73.5044 93.6188 73.4036 93.4265 73.3395C93.2341 73.2662 93.0143 73.2296 92.767 73.2296C92.4922 73.2296 92.2403 73.2937 92.0113 73.4219C91.7824 73.541 91.5992 73.7059 91.4618 73.9165V79H90.2253V74.1913Z" fill="black"/>
<defs>
<clipPath id="clip0_204_2232">
<rect width="33.0987" height="16.8616" fill="white" transform="translate(6 64)"/>
</clipPath>
<clipPath id="clip1_204_2232">
<rect width="39.5427" height="53.3367" fill="white" transform="translate(32 9)"/>
</clipPath>
</defs>
</svg>
