<svg width="183" height="54" viewBox="0 0 183 54" fill="none" xmlns="http://www.w3.org/2000/svg">
<g clip-path="url(#clip0_123_960)">
<path d="M19.5864 14.8147C19.8149 15.8084 20.2608 22.2959 19.0933 28.193C18.3464 31.9696 16.4066 36.2358 16.4066 36.2358C16.4066 36.2358 7.75191 32.2216 7.26968 23.0196C6.81646 14.3791 10.2138 7.96359 13.0782 4.151C4.71713 5.55147 0 9.00405 0 9.00405L0.126902 22.9079C0.206669 31.4512 4.55035 39.4004 11.7258 44.1202L16.8236 47.472C16.9106 50.1973 16.4393 53.3331 16.4393 53.3331C16.4393 53.3331 17.6829 51.2738 18.1579 49.9957C18.6329 48.7176 19.7822 45.8843 19.7822 45.8843L19.717 45.8339C21.0077 42.1905 22.3457 37.6183 22.8206 33.2657C23.9918 22.5371 20.1484 15.7436 19.5864 14.8147Z" fill="#5D9C57"/>
<path d="M29.3507 4.61543C28.2376 3.8882 26.9541 3.15016 25.5074 2.48773C20.0615 0 16.9614 0 16.9614 0C16.9614 0 20.6887 1.70289 23.3936 3.73339C23.5241 3.83059 23.651 3.9314 23.7743 4.0286C27.0918 6.72514 30.6487 11.0634 32.0882 17.8209C34.938 31.1956 27.1897 42.3561 21.7184 48.3072L28.2992 43.8214C35.3369 39.0224 39.5391 31.0912 39.5391 22.6163V9.00405C39.5391 9.00405 36.0439 6.18871 29.3471 4.61543H29.3507Z" fill="#9AC057"/>
</g>
<g clip-path="url(#clip1_123_960)">
<path d="M62.8134 16.7459C62.6599 15.5055 61.4701 14.7191 60.4533 14.5094C58.8622 14.181 57.2903 15.0538 57.2903 15.0538C57.2903 15.0538 56.9503 14.1709 56.1905 13.1405C55.4304 12.1108 55.1287 11.9546 55.1287 11.9546L54.9327 12.1198C54.9327 12.1198 55.4124 12.4837 56.0338 13.3502C56.5135 14.0192 57.0471 15.1625 57.0471 15.1625C57.0471 15.1625 53.3849 15.2961 52.9176 17.8138C52.45 20.3319 58.2744 22.7926 58.2744 22.7926C58.2744 22.7926 63.2026 19.8931 62.813 16.7456L62.8134 16.7459ZM58.3234 22.5677L58.2961 22.5639C58.2961 22.5639 58.473 20.1191 58.3095 18.4759C58.1316 16.6862 57.1361 15.2923 57.1361 15.2923L57.3566 15.2086C57.3566 15.2086 58.5208 16.5057 58.6052 18.6273C58.6896 20.7488 58.3237 22.5673 58.3237 22.5673L58.3234 22.5677Z" fill="#8AC74F"/>
<path d="M56.2427 14.3324L56.2516 14.1567C56.2516 14.1567 52.3316 13.2961 49.9535 16.3064C47.3861 19.556 49.1562 23.3669 52.7613 25.7433C56.3665 28.1194 59.3473 29.8507 58.7928 32.4646C58.2383 35.0785 54.6371 36.3241 53.5625 36.4602C52.488 36.5963 51.6559 36.5619 51.6559 36.5619L51.6591 36.7463C51.6591 36.7463 55.1678 37.0344 57.3496 36.0193C59.5309 35.0042 62.6486 32.0369 61.4014 28.1478C60.1542 24.2588 53.9171 23.486 51.9569 20.1951C51.1061 18.7669 51.2071 17.1265 52.4082 15.8683C54.045 14.1536 56.2431 14.3324 56.2431 14.3324H56.2427Z" fill="black"/>
<path d="M53.0717 26.948C53.0717 26.948 48.9579 30.1732 49.3333 32.6753C49.6453 34.7542 51.7458 35.4961 54.1984 35.3701C55.9508 35.2802 57.9096 33.7425 57.6511 31.7025C57.4338 29.9865 53.0714 26.948 53.0714 26.948H53.0717Z" fill="#42B2E7"/>
<path d="M68.5465 32.3806V23.3982H67.8154C67.0844 23.3982 65.7479 23.6357 64.7669 25.0705C63.8721 26.3797 63.832 28.3544 63.832 30.5913C63.832 32.8281 64.6389 34.3668 65.5862 34.3668C66.3903 34.3668 67.0114 33.4721 67.0114 33.4721C67.0114 33.4721 67.1029 33.7252 67.3039 33.9193C67.5492 34.1564 67.925 34.313 67.925 34.313L69.1126 33.0069C69.1126 33.0069 68.5461 32.7205 68.5461 32.3806H68.5465ZM66.865 32.7965C66.865 32.7965 66.0847 32.9337 65.8876 32.3549C65.7677 32.0036 65.6291 31.4922 65.6291 28.3919C65.6291 25.2917 66.8653 25.3753 66.8653 25.3753V32.7962L66.865 32.7965Z" fill="black"/>
<path d="M83.6146 32.3806V23.3982H82.8836C82.1525 23.3982 80.816 23.6357 79.835 25.0705C78.9402 26.3797 78.9001 28.3544 78.9001 30.5913C78.9001 32.8281 79.707 34.3668 80.6543 34.3668C81.4584 34.3668 82.0795 33.4721 82.0795 33.4721C82.0795 33.4721 82.171 33.7252 82.372 33.9193C82.6173 34.1564 82.9931 34.313 82.9931 34.313L84.1808 33.0069C84.1808 33.0069 83.6142 32.7205 83.6142 32.3806H83.6146ZM81.9331 32.7965C81.9331 32.7965 81.1528 32.9337 80.9557 32.3549C80.8358 32.0036 80.6972 31.4922 80.6972 28.3919C80.6972 25.2917 81.9334 25.3753 81.9334 25.3753V32.7962L81.9331 32.7965Z" fill="black"/>
<path d="M69.6432 36.6494L69.6591 36.4446C69.6591 36.4446 72.8126 35.8773 73.0218 34.4435C73.2309 33.0097 71.5899 23.5089 71.5899 23.5089H73.4561L73.907 30.3927H74.0846L74.5189 23.4937H76.4922C76.4922 23.4937 75.2294 32.6924 74.9529 34.0644C74.6763 35.4364 72.5254 36.2481 70.9865 36.4995C70.154 36.6352 69.6428 36.6491 69.6428 36.6491L69.6432 36.6494Z" fill="black"/>
<path d="M89.4492 24.9489C89.4492 24.9489 90.5461 24.4348 90.5461 25.4447C90.5461 26.4546 90.5369 34.2282 90.5369 34.2282H92.3751C92.3751 34.1247 92.3754 26.4046 92.3754 26.3001C92.3754 24.0636 91.6749 23.3787 90.7276 23.3787C89.9235 23.3787 89.3024 24.2733 89.3024 24.2733C89.3024 24.2733 89.211 24.0202 89.0099 23.8262C88.7646 23.589 88.3888 23.4325 88.3888 23.4325L87.2012 24.7385C87.2012 24.7385 87.7677 25.025 87.7677 25.3648V34.2205L89.4623 34.2139L89.4492 24.9486V24.9489Z" fill="black"/>
<path d="M95.6705 22.9287C94.674 22.9287 93.8635 23.7227 93.8635 24.6983C93.8635 25.6738 94.6743 26.4678 95.6705 26.4678C96.6667 26.4678 97.4775 25.6738 97.4775 24.6983C97.4775 23.7227 96.6667 22.9287 95.6705 22.9287ZM95.6705 26.3289C94.7523 26.3289 94.0053 25.5974 94.0053 24.6983C94.0053 23.7991 94.7523 23.0676 95.6705 23.0676C96.5887 23.0676 97.3357 23.7991 97.3357 24.6983C97.3357 25.5974 96.5887 26.3289 95.6705 26.3289Z" fill="black"/>
<path d="M96.5345 24.2478C96.5345 23.9621 96.2973 23.7299 96.0055 23.7299H94.9473V25.6629H95.0891V24.7655H95.7052L96.2998 25.666L96.4717 25.6671L95.8743 24.7655H96.0055C96.2969 24.7655 96.5345 24.5332 96.5345 24.2475V24.2478ZM95.0891 24.627V23.8691H96.0055C96.2189 23.8691 96.3927 24.0392 96.3927 24.2482C96.3927 24.4572 96.2189 24.6273 96.0055 24.6273H95.0891V24.627Z" fill="black"/>
</g>
<path d="M102.381 22.7084C102.381 22.0205 102.286 21.5147 102.097 21.191C101.909 20.8538 101.531 20.6852 100.964 20.6852H100.56V20.2806H105.82C107.115 20.2806 108.281 20.5571 109.32 21.1101C110.358 21.6631 110.878 22.7353 110.878 24.3268C110.878 25.3789 110.608 26.1881 110.068 26.7546C109.529 27.3211 108.922 27.6987 108.248 27.8875C107.587 28.0764 106.98 28.1708 106.427 28.1708H104.201V33.6332H102.381V22.7084ZM105.719 27.4627C106.15 27.4627 106.609 27.3548 107.094 27.139C107.58 26.9097 107.991 26.5523 108.329 26.0667C108.679 25.5812 108.855 24.9675 108.855 24.2257C108.855 23.4839 108.679 22.8702 108.329 22.3847C107.991 21.8991 107.58 21.5484 107.094 21.3326C106.609 21.1033 106.15 20.9887 105.719 20.9887C105.247 20.9887 104.741 21.0561 104.201 21.191V27.2604C104.741 27.3952 105.247 27.4627 105.719 27.4627ZM113.017 26.5523C113.017 25.8644 112.923 25.3586 112.734 25.0349C112.545 24.6978 112.168 24.5292 111.601 24.5292H111.399V24.1245H113.017C113.53 24.1245 113.914 24.1987 114.17 24.3471C114.44 24.482 114.629 24.7112 114.737 25.0349H114.838C115.081 24.7247 115.405 24.4617 115.809 24.2459C116.227 24.0301 116.713 23.9222 117.266 23.9222C117.805 23.9222 118.21 24.0234 118.48 24.2257C118.709 24.401 118.945 24.7045 119.188 25.1361L118.379 25.743C118.23 25.5407 118.014 25.3924 117.731 25.2979C117.448 25.19 117.124 25.1361 116.76 25.1361C116.355 25.1361 115.985 25.2305 115.647 25.4193C115.31 25.5947 115.04 25.8374 114.838 26.1477V33.6332H113.017V26.5523ZM124.623 33.8355C123.706 33.8355 122.91 33.6197 122.236 33.1881C121.562 32.743 121.049 32.1428 120.698 31.3875C120.348 30.6322 120.172 29.796 120.172 28.8789C120.172 27.9617 120.348 27.1255 120.698 26.3702C121.049 25.6149 121.562 25.0214 122.236 24.5899C122.91 24.1448 123.706 23.9222 124.623 23.9222C125.54 23.9222 126.336 24.1448 127.011 24.5899C127.685 25.0214 128.197 25.6149 128.548 26.3702C128.899 27.1255 129.074 27.9617 129.074 28.8789C129.074 29.796 128.899 30.6322 128.548 31.3875C128.197 32.1428 127.685 32.743 127.011 33.1881C126.336 33.6197 125.54 33.8355 124.623 33.8355ZM124.623 33.0262C125.122 33.0262 125.561 32.8442 125.938 32.48C126.329 32.1158 126.626 31.6168 126.829 30.9829C127.044 30.349 127.152 29.6476 127.152 28.8789C127.152 28.1101 127.044 27.4087 126.829 26.7748C126.626 26.1409 126.329 25.6419 125.938 25.2777C125.561 24.9136 125.122 24.7315 124.623 24.7315C124.124 24.7315 123.679 24.9136 123.288 25.2777C122.91 25.6419 122.614 26.1409 122.398 26.7748C122.196 27.4087 122.094 28.1101 122.094 28.8789C122.094 29.6476 122.196 30.349 122.398 30.9829C122.614 31.6168 122.91 32.1158 123.288 32.48C123.679 32.8442 124.124 33.0262 124.623 33.0262ZM134.259 33.8355C133.504 33.8355 132.91 33.6197 132.479 33.1881C132.047 32.7565 131.831 32.0956 131.831 31.2054V24.9338H130.415V24.1245H131.831V22.3037L132.843 21.0899H133.652V24.1245H136.08V24.9338H133.652V31.2054C133.652 32.4193 134.124 33.0262 135.068 33.0262C135.392 33.0262 135.662 32.9925 135.877 32.9251C136.107 32.8577 136.343 32.7565 136.585 32.6216L136.788 33.0262C136.478 33.2555 136.134 33.4511 135.756 33.6129C135.378 33.7613 134.879 33.8355 134.259 33.8355ZM141.985 33.8355C141.068 33.8355 140.292 33.6197 139.658 33.1881C139.024 32.743 138.546 32.1496 138.222 31.4078C137.898 30.6525 137.736 29.8095 137.736 28.8789C137.736 27.9617 137.898 27.1255 138.222 26.3702C138.546 25.6149 139.011 25.0214 139.618 24.5899C140.238 24.1448 140.96 23.9222 141.783 23.9222C143.145 23.9222 144.156 24.3066 144.817 25.0754C145.492 25.8307 145.829 26.9299 145.829 28.3731L145.788 29.1823H139.658C139.658 30.3153 139.901 31.2392 140.387 31.954C140.872 32.6688 141.54 33.0262 142.39 33.0262C143.024 33.0262 143.556 32.8914 143.988 32.6216C144.433 32.3519 144.844 31.9472 145.222 31.4078L145.627 31.7112C145.181 32.453 144.662 32.9925 144.069 33.3297C143.475 33.6669 142.781 33.8355 141.985 33.8355ZM143.907 28.3731C143.907 27.1862 143.732 26.2825 143.381 25.6621C143.03 25.0417 142.497 24.7315 141.783 24.7315C141.378 24.7315 141.014 24.8933 140.69 25.217C140.366 25.5272 140.11 25.9588 139.921 26.5118C139.746 27.0648 139.658 27.6852 139.658 28.3731H143.907ZM152.066 33.8355C151.095 33.8355 150.272 33.6197 149.598 33.1881C148.937 32.743 148.438 32.1496 148.1 31.4078C147.777 30.6525 147.615 29.8095 147.615 28.8789C147.615 27.9482 147.777 27.112 148.1 26.3702C148.438 25.6149 148.937 25.0214 149.598 24.5899C150.272 24.1448 151.095 23.9222 152.066 23.9222C153.549 23.9222 154.527 24.1583 154.999 24.6303C155.229 24.8596 155.37 25.1428 155.424 25.48C155.478 25.8037 155.505 26.3972 155.505 27.2604H155.1C155.047 26.4241 154.783 25.797 154.311 25.3789C153.839 24.9473 153.226 24.7315 152.47 24.7315C151.499 24.7315 150.764 25.1159 150.265 25.8846C149.78 26.6534 149.537 27.6515 149.537 28.8789C149.537 30.1062 149.78 31.1043 150.265 31.8731C150.764 32.6419 151.499 33.0262 152.47 33.0262C153.158 33.0262 153.725 32.8981 154.17 32.6419C154.615 32.3721 155.026 31.9607 155.404 31.4078L155.809 31.7112C155.363 32.4665 154.837 33.0128 154.231 33.3499C153.624 33.6736 152.902 33.8355 152.066 33.8355ZM160.753 33.8355C159.998 33.8355 159.404 33.6197 158.973 33.1881C158.541 32.7565 158.325 32.0956 158.325 31.2054V24.9338H156.909V24.1245H158.325V22.3037L159.337 21.0899H160.146V24.1245H162.574V24.9338H160.146V31.2054C160.146 32.4193 160.618 33.0262 161.562 33.0262C161.886 33.0262 162.156 32.9925 162.371 32.9251C162.601 32.8577 162.837 32.7565 163.08 32.6216L163.282 33.0262C162.972 33.2555 162.628 33.4511 162.25 33.6129C161.872 33.7613 161.373 33.8355 160.753 33.8355ZM168.681 33.8355C167.764 33.8355 166.968 33.6197 166.294 33.1881C165.62 32.743 165.107 32.1428 164.757 31.3875C164.406 30.6322 164.231 29.796 164.231 28.8789C164.231 27.9617 164.406 27.1255 164.757 26.3702C165.107 25.6149 165.62 25.0214 166.294 24.5899C166.968 24.1448 167.764 23.9222 168.681 23.9222C169.599 23.9222 170.394 24.1448 171.069 24.5899C171.743 25.0214 172.256 25.6149 172.606 26.3702C172.957 27.1255 173.132 27.9617 173.132 28.8789C173.132 29.796 172.957 30.6322 172.606 31.3875C172.256 32.1428 171.743 32.743 171.069 33.1881C170.394 33.6197 169.599 33.8355 168.681 33.8355ZM168.681 33.0262C169.18 33.0262 169.619 32.8442 169.996 32.48C170.388 32.1158 170.684 31.6168 170.887 30.9829C171.102 30.349 171.21 29.6476 171.21 28.8789C171.21 28.1101 171.102 27.4087 170.887 26.7748C170.684 26.1409 170.388 25.6419 169.996 25.2777C169.619 24.9136 169.18 24.7315 168.681 24.7315C168.182 24.7315 167.737 24.9136 167.346 25.2777C166.968 25.6419 166.672 26.1409 166.456 26.7748C166.254 27.4087 166.153 28.1101 166.153 28.8789C166.153 29.6476 166.254 30.349 166.456 30.9829C166.672 31.6168 166.968 32.1158 167.346 32.48C167.737 32.8442 168.182 33.0262 168.681 33.0262ZM175.667 26.5523C175.667 25.8644 175.572 25.3586 175.383 25.0349C175.195 24.6978 174.817 24.5292 174.25 24.5292H174.048V24.1245H175.667C176.179 24.1245 176.564 24.1987 176.82 24.3471C177.09 24.482 177.278 24.7112 177.386 25.0349H177.487C177.73 24.7247 178.054 24.4617 178.459 24.2459C178.877 24.0301 179.362 23.9222 179.915 23.9222C180.455 23.9222 180.859 24.0234 181.129 24.2257C181.358 24.401 181.594 24.7045 181.837 25.1361L181.028 25.743C180.88 25.5407 180.664 25.3924 180.381 25.2979C180.097 25.19 179.774 25.1361 179.409 25.1361C179.005 25.1361 178.634 25.2305 178.297 25.4193C177.96 25.5947 177.69 25.8374 177.487 26.1477V33.6332H175.667V26.5523Z" fill="black"/>
<defs>
<clipPath id="clip0_123_960">
<rect width="39.5427" height="53.3367" fill="white"/>
</clipPath>
<clipPath id="clip1_123_960">
<rect width="48.7387" height="24.8291" fill="white" transform="translate(48.7388 11.9547)"/>
</clipPath>
</defs>
</svg>
